<svg xmlns="http://www.w3.org/2000/svg"  viewBox="0 0 100 100" width="100px" height="100px" baseProfile="basic"><path fill="#ef6388" d="M82,29.429v41.143C82,76.857,76.857,82,70.571,82H29.429C23.143,82,18,76.857,18,70.571V29.429	C18,23.143,23.143,18,29.429,18h41.143C76.857,18,82,23.143,82,29.429z"/><path fill="#1f212b" d="M70.571,83H29.429C22.575,83,17,77.424,17,70.571V29.429C17,22.576,22.575,17,29.429,17h41.143	C77.425,17,83,22.576,83,29.429v41.143C83,77.424,77.425,83,70.571,83z M29.429,19C23.679,19,19,23.678,19,29.429v41.143	C19,76.322,23.679,81,29.429,81h41.143C76.321,81,81,76.322,81,70.571V29.429C81,23.678,76.321,19,70.571,19H29.429z"/><path fill="#1f212b" d="M70.571,78H66.5c-0.276,0-0.5-0.224-0.5-0.5s0.224-0.5,0.5-0.5h4.071C74.116,77,77,74.116,77,70.571	V29.429C77,25.884,74.116,23,70.571,23H29.429C25.884,23,23,25.884,23,29.429V43.5c0,0.276-0.224,0.5-0.5,0.5S22,43.776,22,43.5	V29.429C22,25.333,25.332,22,29.429,22h41.143C74.668,22,78,25.333,78,29.429v41.143C78,74.667,74.668,78,70.571,78z"/><path fill="#1f212b" d="M22.5,50c-0.276,0-0.5-0.224-0.5-0.5v-3c0-0.276,0.224-0.5,0.5-0.5s0.5,0.224,0.5,0.5v3	C23,49.776,22.776,50,22.5,50z"/><path fill="#1f212b" d="M40.5,78H29.429C25.332,78,22,74.667,22,70.571V52.5c0-0.276,0.224-0.5,0.5-0.5s0.5,0.224,0.5,0.5	v18.071C23,74.116,25.884,77,29.429,77H40.5c0.276,0,0.5,0.224,0.5,0.5S40.776,78,40.5,78z"/><path fill="#1f212b" d="M46.5,78h-3c-0.276,0-0.5-0.224-0.5-0.5s0.224-0.5,0.5-0.5h3c0.276,0,0.5,0.224,0.5,0.5	S46.776,78,46.5,78z"/><path fill="#1f212b" d="M63.5,78h-14c-0.276,0-0.5-0.224-0.5-0.5s0.224-0.5,0.5-0.5h14c0.276,0,0.5,0.224,0.5,0.5	S63.776,78,63.5,78z"/><path fill="#fefdef" d="M58.421,41.579V40.27c0-4.396-3.205-8.328-7.579-8.756c-5.019-0.49-9.263,3.459-9.263,8.381v1.684	H34.95c-0.972,0-1.741,0.82-1.681,1.789l1.08,17.261c0.278,4.438,3.958,7.896,8.404,7.896h14.493c4.446,0,8.128-3.458,8.404-7.896	l1.08-17.261c0.062-0.968-0.709-1.789-1.679-1.789H58.421z M44.947,39.895c0-2.786,2.267-5.053,5.053-5.053s5.053,2.267,5.053,5.053	v1.684H44.947V39.895z"/><path fill="#1f212b" d="M57.245,69.024H42.753c-4.698,0-8.609-3.674-8.903-8.364l-1.079-17.261	c-0.038-0.598,0.176-1.192,0.587-1.63s0.991-0.689,1.593-0.689h6.129v-1.185c0-2.508,1.069-4.917,2.934-6.608	c1.888-1.712,4.328-2.519,6.878-2.27c4.503,0.44,8.03,4.505,8.03,9.254v0.809h6.129c0.602,0,1.182,0.251,1.594,0.69	c0.41,0.438,0.623,1.032,0.585,1.63l-1.08,17.26C65.856,65.35,61.945,69.024,57.245,69.024z M34.95,42.079	c-0.331,0-0.638,0.133-0.864,0.374c-0.226,0.241-0.338,0.554-0.317,0.883l1.079,17.262c0.261,4.165,3.733,7.427,7.905,7.427h14.492	c4.174,0,7.646-3.262,7.905-7.427l1.08-17.261c0.021-0.329-0.091-0.643-0.316-0.883c-0.227-0.242-0.533-0.375-0.864-0.375h-7.129	v-1.809c0-4.24-3.131-7.868-7.128-8.259c-2.259-0.224-4.433,0.495-6.108,2.016c-1.656,1.502-2.605,3.64-2.605,5.867v2.185H34.95z M55.553,42.079H44.447v-2.185c0-3.062,2.491-5.552,5.553-5.552s5.553,2.491,5.553,5.552V42.079z M45.447,41.079h9.105v-1.185	c0-2.51-2.042-4.552-4.553-4.552s-4.553,2.042-4.553,4.552V41.079z"/></svg>